# xmcd
#
# Track frame offsets: 
#        150
#        16552
#        32956
#
# Disc length: 660 seconds
#
# Revision: 2
# Processed by: cddbd v1.5.2PL0 Copyright (c) Steve Scherf et al.
# Submitted via: ExactAudioCopy v0.99pb4
#
DISCID=16029203
DTITLE=T-Pain - Freeze (Promo)
DYEAR=2008
DGENRE=R&B
TTITLE0=Freeze (ft. Chris Brown)
TTITLE1=Freeze (INST)
TTITLE2=Freeze (Acapella)
EXTD=
EXTT0=
EXTT1=
EXTT2=
PLAYORDER=
